<?xml version="1.0" standalone="no"?>
<!DOCTYPE svg PUBLIC "-//W3C//DTD SVG 20010904//EN"
 "http://www.w3.org/TR/2001/REC-SVG-20010904/DTD/svg10.dtd">
<svg version="1.0" xmlns="http://www.w3.org/2000/svg"
 width="512.000000pt" height="512.000000pt" viewBox="0 0 512.000000 512.000000"
 preserveAspectRatio="xMidYMid meet">
<metadata>
Created by potrace 1.14, written by Peter Selinger 2001-2017
</metadata>
<g transform="translate(0.000000,512.000000) scale(0.100000,-0.100000)"
fill="#000000" stroke="none">
<path d="M1337 4845 c-1 -2 -36 -6 -77 -9 -235 -22 -492 -123 -695 -274 -152
-114 -323 -319 -411 -495 -34 -67 -88 -205 -99 -250 -64 -279 -65 -453 -5
-752 134 -664 576 -1364 1255 -1989 55 -51 132 -118 170 -150 39 -32 79 -66
90 -75 244 -203 624 -435 908 -554 75 -31 91 -35 115 -25 15 6 41 16 57 23
675 274 1479 965 1952 1680 250 377 429 792 477 1105 3 19 13 71 22 115 21
104 25 326 8 440 -47 313 -176 568 -403 795 -124 123 -211 187 -357 263 -439
225 -982 197 -1399 -74 -129 -83 -270 -212 -347 -316 -17 -24 -34 -43 -37 -43
-3 0 -15 14 -27 30 -109 156 -338 340 -536 429 -163 74 -365 120 -547 125 -61
1 -112 2 -114 1z"/>
</g>
</svg>
